<svg xmlns="http://www.w3.org/2000/svg" xml:space="preserve" width="1000" height="1000" data-id="lg_m7Pfuzu9BOgaMb4F2r" data-version="1" viewBox="0 0 2000 92"><g data-padding="20"><g transform="translate(10 1.64)scale(.96435)"><rect width="459.081" height="91.53" x="396.808" y="-386.705" fill="none" rx="0" ry="0" transform="translate(450.96 386.94)"/><path fill="#061429" d="M867.349 70.95h-13.29V11.82h13.29Zm25.68 0h-12.96V26.56h10.29V45.6h-.73q0-6.81 1.74-11.34 1.75-4.54 5.31-6.81 3.56-2.26 8.67-2.26h.56q7.78 0 11.87 5.06t4.09 15.35v25.35h-12.96V44.87q0-3.57-2.11-5.83-2.1-2.27-5.67-2.27-3.64 0-5.87 2.31t-2.23 6.03Zm61 0h-12.56l-13.28-44.39h13.36Zm4.53 0h-13.04V60.18h13.04Zm3.49 0h-11.75l10.77-44.39h12.48Zm39.51 1.54q-5.67 0-10-1.94-4.33-1.95-7.21-5.23-2.87-3.28-4.37-7.37t-1.5-8.38v-1.62q0-4.46 1.5-8.55t4.33-7.33q2.84-3.24 7.09-5.14 4.25-1.91 9.68-1.91 7.13 0 12.03 3.2t7.49 8.35q2.59 5.14 2.59 11.21v4.38h-39.28v-7.37h31.42l-4.21 3.4q0-3.97-1.13-6.8-1.14-2.84-3.36-4.34-2.23-1.5-5.55-1.5-3.4 0-5.75 1.54t-3.57 4.5q-1.21 2.95-1.21 7.25 0 3.97 1.13 6.92 1.14 2.96 3.57 4.58t6.31 1.62q3.57 0 5.84-1.38 2.26-1.37 3.07-3.4h11.91q-.97 4.46-3.81 7.94-2.83 3.48-7.12 5.43-4.3 1.94-9.89 1.94m43.19-1.55h-12.96V26.55h10.29v19.04h-.25q0-9.4 4.01-14.5t11.63-5.1h1.7v11.17h-3.24q-5.35 0-8.27 2.88-2.91 2.87-2.91 8.3Zm37.99 1.39q-9.48 0-14.83-3.89-5.34-3.89-5.67-10.94h11.51q.32 2.11 2.55 3.77t6.68 1.66q3.4 0 5.63-1.17 2.23-1.18 2.23-3.36 0-1.95-1.7-3.12-1.7-1.18-6.08-1.66l-3.48-.33q-8.02-.81-12.03-4.45-4.01-3.65-4.01-9.32 0-4.7 2.35-7.85 2.35-3.16 6.52-4.78t9.52-1.62q8.58 0 13.85 3.76 5.26 3.77 5.51 10.9h-11.51q-.32-2.19-2.26-3.69-1.95-1.5-5.75-1.5-3 0-4.78 1.14-1.79 1.13-1.79 3.08 0 1.86 1.54 2.83t5.03 1.38l3.48.32q8.18.89 12.72 4.54 4.53 3.64 4.53 9.8 0 4.45-2.43 7.73t-6.88 5.03q-4.46 1.74-10.45 1.74m43.25-1.38h-12.96V26.56h12.96Zm0-34.83h-18.87v-9.56h18.87Zm-7.94-13.93q-3.64 0-5.38-1.91-1.74-1.9-1.74-4.81 0-3 1.74-4.91 1.74-1.9 5.38-1.9 3.65 0 5.39 1.9 1.74 1.91 1.74 4.91 0 2.91-1.74 4.81-1.74 1.91-5.39 1.91m41.56 50.3q-5.84 0-10.37-1.82-4.54-1.83-7.66-4.98-3.11-3.16-4.73-7.25t-1.62-8.63v-1.86q0-4.62 1.66-8.79t4.86-7.33 7.73-4.98q4.54-1.83 10.13-1.83 5.75 0 10.24 1.83 4.5 1.82 7.66 4.98t4.86 7.33 1.7 8.79v1.86q0 4.54-1.62 8.63t-4.74 7.25q-3.12 3.15-7.65 4.98-4.54 1.82-10.45 1.82m0-10.94q3.8 0 6.31-1.62 2.52-1.62 3.85-4.53 1.34-2.92 1.34-6.48 0-3.81-1.38-6.68-1.38-2.88-3.93-4.58t-6.19-1.7q-3.57 0-6.16 1.7t-3.93 4.58q-1.33 2.87-1.33 6.68 0 3.56 1.29 6.48 1.3 2.91 3.89 4.53t6.24 1.62m4.94-40.17h-11.34l7.29-16.93h13.28Zm41.55 49.57h-12.96V26.56h10.29V45.6h-.73q0-6.81 1.74-11.34 1.74-4.54 5.31-6.81 3.56-2.26 8.66-2.26h.57q7.78 0 11.87 5.06t4.09 15.35v25.35h-12.96V44.87q0-3.57-2.11-5.83-2.11-2.27-5.67-2.27-3.64 0-5.87 2.31t-2.23 6.03Zm80.84-7.54h-11.5V22.66h11.5Zm14.42-15.07h-40.26V37.81h40.26Z"/><path fill="#99b4b2" d="M788.829 13.05c-23.458 0-42.48 31.86-42.48 31.86s19.022 31.86 42.48 31.86 42.48-31.86 42.48-31.86-19.022-31.86-42.48-31.86m0 53.1c-11.73 0-21.24-9.51-21.24-21.24s9.51-21.24 21.24-21.24 21.24 9.51 21.24 21.24-9.51 21.24-21.24 21.24"/><path fill="#99b4b2" d="M788.829 34.29a10.62 10.62 0 1 0 0 21.24 10.62 10.62 0 1 0 0-21.24"/></g><path fill="transparent" stroke="transparent" d="M719.5 0h561v92h-561z"/></g></svg>