<svg width="2000" height="308" xmlns="http://www.w3.org/2000/svg" version="1.1">
 <g>
  <title>Layer 1</title>
  <g id="svg_5" transform="matrix(1,0,0,1,-1.2121212121212466,-0.2999021525550063)">
   <svg id="svg_25" width="2000" height="308" preserveAspectRatio="xMidYMid meet" data-background-color="#ffffff" viewBox="0 0 396 61" xmlns:xlink="http://www.w3.org/1999/xlink" xmlns="http://www.w3.org/2000/svg">
    <g transform="matrix(1,0,0,1,0.2400000000000091,0.059396205538490676)" id="svg_1">
     <g id="svg_9">
      <svg id="svg_26" width="395.52" height="60.88121" viewBox="0 0 395.52 60.881207588923004">
       <g id="svg_13">
        <svg id="svg_27" width="395.52" height="60.88121" viewBox="0 0 482.4715655045817 74.26540133302261">
         <g id="svg_17" transform="matrix(1,0,0,1,0,10.263886870193431)">
          <svg id="svg_28" width="395.52" height="53.73763" viewBox="0 0 395.52 53.73762759263575">
           <g id="svg_14">
            <svg id="svg_18" width="395.52" height="53.73763" viewBox="0 0 395.52 53.73762759263575">
             <g id="svg_21">
              <svg id="svg_29" width="395.52" height="53.73763" viewBox="0 0 395.52 53.73762759263575">
               <g id="svg_23">
                <svg id="svg_30" data-palette-color="#113f67" height="53.73763" viewBox="1.35 -28.65 214.53 29.15" width="395.52">
                 <path id="svg_22" data-fill-palette-color="primary" class="wordmark-text-0" fill="#113f67" d="m14.9,0.5l0,0q-3.85,0 -6.92,-1.65q-3.08,-1.65 -4.85,-4.88q-1.78,-3.22 -1.78,-8.02l0,0q0,-4.85 1.75,-8.1q1.75,-3.25 4.88,-4.88q3.12,-1.62 7.12,-1.62l0,0q3.3,0 5.85,1.2q2.55,1.2 4.28,3.47q1.72,2.28 2.32,5.58l0,0l-2.35,0q-0.5,-2.65 -1.92,-4.48q-1.43,-1.82 -3.5,-2.75q-2.08,-0.92 -4.68,-0.92l0,0q-5.3,0 -8.37,3.2q-3.08,3.2 -3.08,9.2l0,0q0,6.2 3.03,9.37q3.02,3.18 8.22,3.18l0,0q2.85,0 5.05,-0.95q2.2,-0.95 3.58,-2.75q1.37,-1.8 1.82,-4.4l0,0l2.45,0q-0.6,3.25 -2.3,5.53q-1.7,2.27 -4.37,3.47q-2.68,1.2 -6.23,1.2zm19.7,-0.5l-2.3,0l0,-28.15l2.3,0l0,28.15zm13.55,0.5l0,0q-3.15,0 -5.28,-1.33q-2.12,-1.32 -3.17,-3.67q-1.05,-2.35 -1.05,-5.35l0,0q0,-3.05 1.05,-5.43q1.05,-2.37 3.17,-3.7q2.13,-1.32 5.28,-1.32l0,0q4.6,0 7.02,2.87q2.43,2.88 2.43,7.58l0,0q0,2.9 -1,5.27q-1,2.38 -3.1,3.73q-2.1,1.35 -5.35,1.35zm0,-2.05l0,0q2.8,0 4.35,-1.25q1.55,-1.25 2.17,-3.18q0.63,-1.92 0.63,-3.92l0,0q0,-2.05 -0.63,-3.98q-0.62,-1.92 -2.17,-3.17q-1.55,-1.25 -4.35,-1.25l0,0q-2.75,0 -4.35,1.25q-1.6,1.25 -2.23,3.17q-0.62,1.93 -0.62,3.98l0,0q0,2 0.62,3.92q0.63,1.93 2.23,3.18q1.6,1.25 4.35,1.25zm21.29,2.05l0,0q-1.9,0 -3.27,-0.55q-1.38,-0.55 -2.28,-1.53q-0.9,-0.97 -1.4,-2.25q-0.5,-1.27 -0.7,-2.77q-0.2,-1.5 -0.2,-3.1l0,0l0,-10.6l2.25,0l0,10.6q0,2.25 0.48,4.1q0.47,1.85 1.82,2.92q1.35,1.08 3.85,1.08l0,0q2.4,0 3.83,-1.13q1.42,-1.12 2.12,-2.9q0.7,-1.77 0.8,-3.77l0,0l0,-10.9l2.35,0l0,20.3l-1.9,0l-0.4,-4.85l-0.1,0q-0.25,0.8 -0.8,1.7q-0.55,0.9 -1.42,1.75q-0.88,0.85 -2.13,1.37q-1.25,0.53 -2.9,0.53zm23.65,0l0,0q-2.9,0 -4.92,-1.4q-2.03,-1.4 -3.08,-3.75q-1.05,-2.35 -1.05,-5.25l0,0q0,-2.95 1.08,-5.3q1.07,-2.35 3.1,-3.73q2.02,-1.37 4.92,-1.37l0,0q2.05,0 3.5,0.7q1.45,0.7 2.3,1.7q0.85,1 1.28,1.87q0.42,0.88 0.57,1.23l0,0l0.1,0l0,-13.35l2.35,0l0,28.15l-1.9,0l-0.4,-4.9l-0.1,0q-0.15,0.25 -0.62,1.12q-0.48,0.88 -1.38,1.88q-0.9,1 -2.32,1.7q-1.43,0.7 -3.43,0.7zm0.3,-2.15l0,0q2.05,0 3.73,-0.95q1.67,-0.95 2.67,-2.83q1,-1.87 1,-4.47l0,0q0,-2.6 -0.92,-4.43q-0.93,-1.82 -2.53,-2.8q-1.6,-0.97 -3.6,-0.97l0,0q-2.5,0 -4.15,1.17q-1.65,1.18 -2.47,3.05q-0.83,1.88 -0.83,3.98l0,0q0,2.05 0.73,3.97q0.72,1.93 2.3,3.1q1.57,1.18 4.07,1.18zm25.6,1.65l-10.35,0l0,-28.15l9.7,0q1.55,0 3.1,0.15q1.55,0.15 2.87,0.6q1.33,0.45 2.35,1.3q1.03,0.85 1.6,2.17q0.58,1.33 0.58,3.28l0,0q0,1.6 -0.6,2.97q-0.6,1.38 -2.23,2.23q-1.62,0.85 -4.62,0.9l0,0l0,0.15q3.5,0.05 5.37,1.02q1.88,0.98 2.58,2.58q0.7,1.6 0.7,3.45l0,0q0,1.95 -0.63,3.25q-0.62,1.3 -1.75,2.12q-1.12,0.83 -2.55,1.25q-1.42,0.43 -3,0.58q-1.57,0.15 -3.12,0.15l0,0zm-8.05,-13.5l0,11.55l7.95,0q2.45,0 4.45,-0.38q2,-0.37 3.15,-1.57q1.15,-1.2 1.15,-3.6l0,0q0,-2.55 -1.25,-3.83q-1.25,-1.27 -3.4,-1.72q-2.15,-0.45 -4.8,-0.45l0,0l-7.25,0zm0,-12.65l0,10.65l7.2,0q2.55,0 4.42,-0.33q1.88,-0.32 2.9,-1.4q1.03,-1.07 1.03,-3.27l0,0q0,-2.6 -1.15,-3.78q-1.15,-1.17 -3.05,-1.52q-1.9,-0.35 -4.1,-0.35l0,0l-7.25,0zm31.75,26.65l0,0q-3.15,0 -5.28,-1.33q-2.12,-1.32 -3.17,-3.67q-1.05,-2.35 -1.05,-5.35l0,0q0,-3.05 1.05,-5.43q1.05,-2.37 3.17,-3.7q2.13,-1.32 5.28,-1.32l0,0q4.6,0 7.02,2.87q2.43,2.88 2.43,7.58l0,0q0,2.9 -1,5.27q-1,2.38 -3.1,3.73q-2.1,1.35 -5.35,1.35zm0,-2.05l0,0q2.8,0 4.35,-1.25q1.55,-1.25 2.17,-3.18q0.63,-1.92 0.63,-3.92l0,0q0,-2.05 -0.63,-3.98q-0.62,-1.92 -2.17,-3.17q-1.55,-1.25 -4.35,-1.25l0,0q-2.75,0 -4.35,1.25q-1.6,1.25 -2.23,3.17q-0.62,1.93 -0.62,3.98l0,0q0,2 0.62,3.92q0.63,1.93 2.23,3.18q1.6,1.25 4.35,1.25zm22.49,2.05l0,0q-3.15,0 -5.27,-1.33q-2.13,-1.32 -3.18,-3.67q-1.05,-2.35 -1.05,-5.35l0,0q0,-3.05 1.05,-5.43q1.05,-2.37 3.18,-3.7q2.12,-1.32 5.27,-1.32l0,0q4.6,0 7.03,2.87q2.42,2.88 2.42,7.58l0,0q0,2.9 -1,5.27q-1,2.38 -3.1,3.73q-2.1,1.35 -5.35,1.35zm0,-2.05l0,0q2.8,0 4.35,-1.25q1.55,-1.25 2.18,-3.18q0.62,-1.92 0.62,-3.92l0,0q0,-2.05 -0.62,-3.98q-0.63,-1.92 -2.18,-3.17q-1.55,-1.25 -4.35,-1.25l0,0q-2.75,0 -4.35,1.25q-1.6,1.25 -2.22,3.17q-0.63,1.93 -0.63,3.98l0,0q0,2 0.63,3.92q0.62,1.93 2.22,3.18q1.6,1.25 4.35,1.25zm16.5,-26.6l0,28.2l-2.3,0l0,-28.2l2.3,0zm3.9,17.55l1.65,-1.55l9.9,12.2l-2.85,0l-8.7,-10.65zm11.4,-9.7l-15.65,15.1l0,-2.85l12.6,-12.25l3.05,0zm10.75,20.8l0,0q-2.05,0 -3.5,-0.58q-1.45,-0.57 -2.4,-1.47q-0.95,-0.9 -1.5,-1.85q-0.55,-0.95 -0.78,-1.75q-0.22,-0.8 -0.22,-1.2l0,0l2.25,0q0,0.05 0.12,0.82q0.13,0.78 0.7,1.78q0.58,1 1.83,1.73q1.25,0.72 3.5,0.72l0,0q1.65,0 3,-0.38q1.35,-0.37 2.15,-1.2q0.8,-0.82 0.8,-2.17l0,0q0,-1.6 -1.03,-2.48q-1.02,-0.87 -2.62,-1.3q-1.6,-0.42 -3.35,-0.8q-1.75,-0.37 -3.33,-0.97q-1.57,-0.6 -2.55,-1.75q-0.97,-1.15 -0.97,-3.15l0,0q0.05,-2.4 2.25,-3.88q2.2,-1.47 5.65,-1.47l0,0q1.3,0 2.75,0.3q1.45,0.3 2.67,1.05q1.23,0.75 2,2.05q0.78,1.3 0.63,3.4l0,0l-2.2,0q0.05,-1.55 -0.53,-2.5q-0.57,-0.95 -1.55,-1.48q-0.97,-0.52 -2.02,-0.67q-1.05,-0.15 -1.9,-0.15l0,0q-2.35,0 -3.98,0.85q-1.62,0.85 -1.62,2.6l0,0q0,1.45 1,2.25q1,0.8 2.6,1.22q1.6,0.43 3.35,0.78q1.75,0.35 3.35,1q1.6,0.65 2.6,1.85q1,1.2 1,3.35l0,0q0,1.95 -1.08,3.15q-1.07,1.2 -2.92,1.75q-1.85,0.55 -4.15,0.55z"/>
                </svg>
               </g>
              </svg>
             </g>
            </svg>
           </g>
          </svg>
         </g>
         <g id="svg_24" transform="matrix(1,0,0,1,408.20616417155907,0)">
          <svg id="svg_31" width="74.2654" height="74.2654" viewBox="0 0 74.26540133302261 74.26540133302261">
           <g id="svg_32" data-palette-color="#87c0cd">
            <rect id="svg_33" x="0" data-fill-palette-color="accent" stroke="transparent" fill="#87c0cd" height="74.2654" width="20.29921"/>
            <rect id="svg_34" fill-opacity="0.75" x="24.75513" data-fill-palette-color="accent" stroke="transparent" fill="#87c0cd" height="74.2654" width="20.29921"/>
            <rect id="svg_35" fill-opacity="0.5" x="49.51027" data-fill-palette-color="accent" stroke="transparent" fill="#87c0cd" height="74.2654" width="20.29921"/>
           </g>
          </svg>
         </g>
        </svg>
       </g>

      </svg>
     </g>
     <rect id="svg_36" visibility="hidden" fill="none" height="60.88121" width="395.52"/>
    </g>
   </svg>
  </g>
 </g>
</svg>